<svg width="180" height="44" viewBox="0 0 180 44" fill="none" xmlns="http://www.w3.org/2000/svg">
<path d="M54.5911 31.0388C53.3866 31.0388 52.3009 30.7588 51.3339 30.199C50.3838 29.6392 49.6373 28.8588 49.0945 27.8578C48.5516 26.8399 48.2801 25.6693 48.2801 24.346C48.2801 22.9888 48.5516 21.8098 49.0945 20.8088C49.6373 19.8079 50.3838 19.0275 51.3339 18.4676C52.3009 17.8908 53.3866 17.6024 54.5911 17.6024C56.118 17.6024 57.3904 18.0011 58.4083 18.7985C59.4262 19.5789 60.0709 20.6307 60.3423 21.954H58.1538C57.9842 21.1566 57.5685 20.5374 56.9069 20.0963C56.2452 19.6552 55.4648 19.4347 54.5657 19.4347C53.8362 19.4347 53.1576 19.6213 52.5299 19.9945C51.9022 20.3508 51.4017 20.8937 51.0285 21.6232C50.6552 22.3526 50.4686 23.2518 50.4686 24.3206C50.4686 25.118 50.5789 25.8305 50.7995 26.4582C51.02 27.0689 51.3169 27.5779 51.6901 27.9851C52.0633 28.3922 52.496 28.7061 52.9879 28.9266C53.4969 29.1302 54.0228 29.232 54.5657 29.232C55.1764 29.232 55.7278 29.1387 56.2198 28.9521C56.7118 28.7485 57.1274 28.4516 57.4667 28.0614C57.806 27.6712 58.0351 27.2131 58.1538 26.6872H60.3423C60.0709 27.9766 59.4177 29.0284 58.3828 29.8427C57.3649 30.6401 56.101 31.0388 54.5911 31.0388ZM61.2567 30.7334V12.4111H63.3943V20.0708C63.8184 19.3074 64.4122 18.7052 65.1756 18.2641C65.956 17.823 66.8043 17.6024 67.7204 17.6024C68.7044 17.6024 69.5611 17.806 70.2906 18.2132C71.0201 18.6034 71.58 19.2056 71.9701 20.0199C72.3603 20.8343 72.5554 21.8607 72.5554 23.0991V30.7334H70.4433V23.3281C70.4433 22.0388 70.1719 21.0718 69.629 20.4271C69.0861 19.7655 68.2972 19.4347 67.2623 19.4347C66.5328 19.4347 65.8712 19.6128 65.2774 19.9691C64.7006 20.3253 64.2426 20.8343 63.9033 21.4959C63.564 22.1576 63.3943 22.9719 63.3943 23.9389V30.7334H61.2567ZM77.9468 31.0388C76.912 31.0388 76.0467 30.8606 75.3512 30.5044C74.6556 30.1311 74.1382 29.6476 73.7989 29.0539C73.4596 28.4431 73.2899 27.7815 73.2899 27.0689C73.2899 26.2037 73.5105 25.4742 73.9516 24.8804C74.4096 24.2697 75.0458 23.8116 75.8601 23.5063C76.6914 23.1839 77.6669 23.0228 78.7866 23.0228H82.1711C82.1711 22.2254 82.0439 21.5638 81.7894 21.0379C81.5519 20.495 81.1956 20.0878 80.7206 19.8164C80.2626 19.5449 79.6857 19.4092 78.9902 19.4092C78.1759 19.4092 77.4718 19.6128 76.878 20.0199C76.2842 20.4271 75.9195 21.0294 75.7838 21.8267H73.5953C73.6971 20.9106 74.0024 20.1472 74.5114 19.5364C75.0373 18.9087 75.699 18.4337 76.4963 18.1114C77.2937 17.7721 78.125 17.6024 78.9902 17.6024C80.1777 17.6024 81.1617 17.823 81.9421 18.2641C82.7395 18.6882 83.3332 19.2905 83.7234 20.0708C84.1136 20.8343 84.3087 21.7419 84.3087 22.7937V30.7334H82.4002L82.2729 28.4686C82.1033 28.8248 81.8827 29.1641 81.6113 29.4865C81.3568 29.7918 81.0514 30.0633 80.6952 30.3008C80.3389 30.5213 79.9317 30.6995 79.4737 30.8352C79.0326 30.9709 78.5236 31.0388 77.9468 31.0388ZM78.2776 29.232C78.8714 29.232 79.4058 29.1132 79.8808 28.8757C80.3728 28.6212 80.7885 28.2819 81.1278 27.8578C81.4671 27.4167 81.7216 26.9332 81.8912 26.4073C82.0778 25.8814 82.1711 25.33 82.1711 24.7532V24.6769H78.9647C78.1334 24.6769 77.4633 24.7787 76.9544 24.9822C76.4454 25.1689 76.0807 25.4403 75.8601 25.7966C75.6396 26.1359 75.5293 26.5261 75.5293 26.9672C75.5293 27.4252 75.6311 27.8239 75.8347 28.1632C76.0552 28.5025 76.3691 28.7654 76.7762 28.9521C77.2004 29.1387 77.7008 29.232 78.2776 29.232ZM90.1856 30.7334C89.4222 30.7334 88.7605 30.6146 88.2007 30.3771C87.6408 30.1396 87.2082 29.7409 86.9029 29.1811C86.6145 28.6043 86.4703 27.8324 86.4703 26.8654V19.7146H84.2309V17.9078H86.4703L86.7502 14.8032H88.6079V17.9078H92.3232V19.7146H88.6079V26.8654C88.6079 27.6627 88.769 28.2056 89.0914 28.494C89.4137 28.7654 89.982 28.9012 90.7964 28.9012H92.1705V30.7334H90.1856ZM98.0303 30.7334C97.2669 30.7334 96.6052 30.6146 96.0454 30.3771C95.4855 30.1396 95.0529 29.7409 94.7476 29.1811C94.4592 28.6043 94.3149 27.8324 94.3149 26.8654V19.7146H92.0756V17.9078H94.3149L94.5949 14.8032H96.4525V17.9078H100.168V19.7146H96.4525V26.8654C96.4525 27.6627 96.6137 28.2056 96.9361 28.494C97.2584 28.7654 97.8267 28.9012 98.641 28.9012H100.015V30.7334H98.0303ZM102.236 36.3319L105.366 29.3083H104.628L99.5894 17.9078H101.905L106.079 27.7051L110.456 17.9078H112.67L104.475 36.3319H102.236ZM117.996 31.0388C116.826 31.0388 115.808 30.8522 114.943 30.4789C114.078 30.1057 113.399 29.5883 112.907 28.9266C112.415 28.265 112.135 27.5185 112.067 26.6872H115.477C115.562 27.0096 115.706 27.3065 115.91 27.5779C116.113 27.8324 116.385 28.036 116.724 28.1886C117.063 28.3413 117.471 28.4177 117.946 28.4177C118.404 28.4177 118.777 28.3583 119.065 28.2395C119.354 28.1038 119.566 27.9257 119.701 27.7051C119.854 27.4846 119.93 27.2556 119.93 27.018C119.93 26.6618 119.829 26.3903 119.625 26.2037C119.422 26.0001 119.125 25.839 118.734 25.7202C118.344 25.6015 117.869 25.4827 117.309 25.364C116.699 25.2452 116.096 25.101 115.503 24.9313C114.926 24.7447 114.408 24.5157 113.95 24.2443C113.492 23.9728 113.127 23.625 112.856 23.2009C112.585 22.7768 112.449 22.2509 112.449 21.6232C112.449 20.8597 112.652 20.1811 113.06 19.5873C113.467 18.9766 114.061 18.4931 114.841 18.1368C115.621 17.7806 116.563 17.6024 117.666 17.6024C119.209 17.6024 120.431 17.9502 121.33 18.6458C122.229 19.3413 122.764 20.2999 122.933 21.5214H119.701C119.6 21.1312 119.371 20.8258 119.014 20.6052C118.675 20.3677 118.217 20.249 117.64 20.249C117.029 20.249 116.563 20.3593 116.241 20.5798C115.918 20.8003 115.757 21.0888 115.757 21.445C115.757 21.6825 115.859 21.8946 116.062 22.0812C116.283 22.2678 116.588 22.429 116.979 22.5647C117.369 22.6835 117.844 22.8022 118.404 22.921C119.388 23.1246 120.253 23.3621 120.999 23.6335C121.746 23.888 122.331 24.2612 122.755 24.7532C123.179 25.2282 123.391 25.9238 123.391 26.8399C123.391 27.6542 123.171 28.3837 122.73 29.0284C122.289 29.6561 121.661 30.1481 120.847 30.5044C120.049 30.8606 119.099 31.0388 117.996 31.0388ZM129.557 30.7334C128.657 30.7334 127.868 30.5977 127.19 30.3262C126.528 30.0378 126.011 29.5713 125.638 28.9266C125.264 28.265 125.078 27.3658 125.078 26.2292V20.7834H122.889V17.9078H125.078L125.459 14.4215H128.513V17.9078H131.898V20.7834H128.513V26.2801C128.513 26.8569 128.64 27.2556 128.895 27.4761C129.149 27.6966 129.582 27.8069 130.193 27.8069H131.872V30.7334H129.557ZM136.994 31.0388C135.926 31.0388 135.043 30.8691 134.348 30.5298C133.652 30.1736 133.135 29.707 132.796 29.1302C132.473 28.5364 132.312 27.8833 132.312 27.1707C132.312 26.3903 132.507 25.7033 132.897 25.1095C133.305 24.5157 133.907 24.0492 134.704 23.7099C135.518 23.3706 136.536 23.2009 137.758 23.2009H140.939C140.939 22.5732 140.854 22.0558 140.684 21.6486C140.515 21.2245 140.252 20.9106 139.895 20.707C139.539 20.5035 139.064 20.4017 138.47 20.4017C137.826 20.4017 137.274 20.5459 136.816 20.8343C136.375 21.1057 136.104 21.5298 136.002 22.1067H132.668C132.753 21.1905 133.05 20.4017 133.559 19.74C134.085 19.0614 134.772 18.5355 135.62 18.1623C136.486 17.789 137.444 17.6024 138.496 17.6024C139.7 17.6024 140.744 17.806 141.626 18.2132C142.508 18.6203 143.187 19.2056 143.662 19.9691C144.137 20.7325 144.374 21.674 144.374 22.7937V30.7334H141.473L141.092 28.7739C140.905 29.1132 140.684 29.4186 140.43 29.69C140.175 29.9615 139.879 30.199 139.539 30.4026C139.2 30.6062 138.818 30.7588 138.394 30.8606C137.97 30.9794 137.503 31.0388 136.994 31.0388ZM137.809 28.3922C138.25 28.3922 138.64 28.3159 138.979 28.1632C139.336 27.9935 139.641 27.773 139.895 27.5016C140.15 27.2131 140.345 26.8908 140.481 26.5345C140.633 26.1613 140.735 25.7626 140.786 25.3385V25.3131H138.165C137.639 25.3131 137.207 25.3809 136.867 25.5166C136.545 25.6354 136.307 25.8135 136.155 26.051C136.002 26.2885 135.926 26.56 135.926 26.8654C135.926 27.2047 136.002 27.4846 136.155 27.7051C136.307 27.9257 136.528 28.0953 136.816 28.2141C137.105 28.3328 137.436 28.3922 137.809 28.3922ZM151.668 31.0388C150.378 31.0388 149.233 30.7504 148.232 30.1736C147.231 29.5967 146.451 28.8079 145.891 27.8069C145.331 26.806 145.051 25.6608 145.051 24.3715C145.051 23.0482 145.331 21.8861 145.891 20.8852C146.451 19.8673 147.231 19.0699 148.232 18.4931C149.233 17.8993 150.378 17.6024 151.668 17.6024C153.313 17.6024 154.696 18.035 155.816 18.9003C156.935 19.7655 157.648 20.953 157.953 22.4629H154.314C154.162 21.8691 153.839 21.4026 153.347 21.0633C152.872 20.724 152.304 20.5544 151.642 20.5544C151.048 20.5544 150.514 20.707 150.039 21.0124C149.581 21.3008 149.216 21.7334 148.945 22.3102C148.69 22.8701 148.563 23.5402 148.563 24.3206C148.563 24.9144 148.639 25.4488 148.792 25.9238C148.945 26.3819 149.157 26.7805 149.428 27.1198C149.7 27.4422 150.022 27.6882 150.395 27.8578C150.785 28.0275 151.201 28.1123 151.642 28.1123C152.083 28.1123 152.482 28.036 152.838 27.8833C153.211 27.7306 153.525 27.5185 153.78 27.2471C154.034 26.9587 154.212 26.6109 154.314 26.2037H157.953C157.648 27.6797 156.927 28.8588 155.79 29.7409C154.67 30.6062 153.296 31.0388 151.668 31.0388ZM167.193 30.7334L161.722 23.7099L166.633 17.9078H170.679L164.343 25.1604V22.4375L171.468 30.7334H167.193ZM158.795 30.7334V12.4111H162.231V30.7334H158.795Z" fill="black"/>
<path d="M24.9351 7.02268V7.00722C20.7368 6.87938 16.7138 8.45366 13.6925 11.394C10.6711 14.3342 9 18.2756 9 22.5036V35.2195C9 36.7443 10.2564 38 11.7831 38H24.4895C28.7198 38 32.6634 36.3309 35.6053 33.3112C38.5473 30.2915 40.1049 26.2862 39.9945 22.0737C39.7717 14.0002 33.0141 7.24537 24.9351 7.02268ZM24.2791 34.0318C18.0249 34.0318 12.9549 28.9636 12.9549 22.7129C12.9549 16.4621 18.0249 11.395 24.2791 11.395C30.5333 11.395 35.6033 16.4621 35.6033 22.7129C35.6033 28.9636 30.5333 34.0318 24.2791 34.0318Z" fill="black"/>
<path d="M19.4216 26.1718L28.1598 17.4385C28.6425 16.956 29.4255 16.956 29.9072 17.4385C30.3899 17.921 30.3899 18.7035 29.9072 19.185L21.1691 27.9183C20.6863 28.4008 19.9034 28.4008 19.4216 27.9183C18.9389 27.4358 18.9389 26.6533 19.4216 26.1718Z" fill="black"/>
<path d="M18.7221 19.8837L21.8672 16.7393C22.35 16.2568 23.1329 16.2568 23.6146 16.7393C24.0974 17.2218 24.0974 18.0043 23.6146 18.4858L20.4684 21.6292C19.9857 22.1117 19.2038 22.1117 18.721 21.6292C18.2393 21.1477 18.2393 20.3662 18.7221 19.8837Z" fill="black"/>
<path d="M25.7129 26.8693L28.859 23.7249C29.3418 23.2434 30.1247 23.2434 30.6065 23.7249C31.0892 24.2084 31.0892 24.9899 30.6065 25.4713L27.4603 28.6158C26.9775 29.0982 26.1956 29.0982 25.7129 28.6158C25.2311 28.1333 25.2311 27.3518 25.7129 26.8693Z" fill="black"/>
</svg>
