<svg width="44" height="32" viewBox="0 0 44 32" fill="none" xmlns="http://www.w3.org/2000/svg">
<rect x="0.645833" y="1.14583" width="42.625" height="29.7083" rx="4.52083" fill="white" stroke="#D9D9D9" stroke-width="1.29167"/>
<path fill-rule="evenodd" clip-rule="evenodd" d="M20.4965 25.4289H23.8561C29.1004 25.4289 33.2795 21.2761 33.4434 16.1463V16.0649C33.3614 10.8536 29.1004 6.61944 23.8561 6.70086H20.0868C15.0883 6.86371 11.155 11.0979 11.3189 16.1463C11.3189 21.1947 15.416 25.3474 20.4965 25.4289ZM12.9577 16.0649C12.9577 11.8308 16.4812 8.32947 20.7422 8.32947C25.0032 8.32947 28.5267 11.8308 28.5267 16.0649C28.5267 20.2991 25.0032 23.8004 20.7422 23.8004C16.4812 23.8004 12.9577 20.2991 12.9577 16.0649ZM21.9716 21.276V10.9349C24.8396 11.6677 26.6423 14.5176 25.9048 17.3675C25.4132 19.3218 23.9382 20.7874 21.9716 21.276ZM15.6618 14.7619C14.9243 17.6118 16.6451 20.5432 19.5131 21.276V10.9349C17.6284 11.4234 16.1535 12.8891 15.6618 14.7619Z" fill="#0079BE"/>
</svg>
