<svg width="44" height="32" viewBox="0 0 44 32" fill="none" xmlns="http://www.w3.org/2000/svg">
<rect y="0.5" width="44" height="31.0588" rx="5.17647" fill="#1F72CD"/>
<path fill-rule="evenodd" clip-rule="evenodd" d="M7.88773 11.479L3.771 20.8394H8.6993L9.31027 19.3469H10.7068L11.3178 20.8394H16.7424V19.7003L17.2258 20.8394H20.0319L20.5153 19.6762V20.8394H31.7971L33.1689 19.3857L34.4535 20.8394L40.2481 20.8514L36.1183 16.1853L40.2481 11.479H34.5433L33.2079 12.9058L31.9639 11.479H19.6907L18.6368 13.895L17.5582 11.479H12.6401V12.5793L12.093 11.479H7.88773ZM8.84128 12.808H11.2436L13.9742 19.1553V12.808H16.6058L18.7149 17.359L20.6587 12.808H23.2771V19.5247H21.6838L21.6708 14.2616L19.348 19.5247H17.9227L15.5869 14.2616V19.5247H12.3092L11.6878 18.0189H8.33061L7.7105 19.5234H5.95433L8.84128 12.808ZM31.2134 12.808H24.7348V19.5207H31.1131L33.1689 17.296L35.1504 19.5207H37.2218L34.2111 16.1838L37.2218 12.808H35.2403L33.1949 15.0072L31.2134 12.808ZM10.0101 13.9448L8.90401 16.6272H11.1148L10.0101 13.9448ZM26.3348 15.4249V14.1987V14.1976H30.3772L32.1411 16.1585L30.2991 18.1301H26.3348V16.7915H29.8691V15.4249H26.3348Z" fill="white"/>
</svg>
