<svg width="44" height="32" viewBox="0 0 44 32" fill="none" xmlns="http://www.w3.org/2000/svg">
<rect x="0.647059" y="1.14706" width="42.7059" height="29.7647" rx="4.52941" fill="white" stroke="#D9D9D9" stroke-width="1.29412"/>
<path fill-rule="evenodd" clip-rule="evenodd" d="M13.9118 20.9838H11.2462L9.24737 13.1487C9.1525 12.7883 8.95105 12.4697 8.65474 12.3195C7.91524 11.9421 7.10037 11.6417 6.21143 11.4903V11.1886H10.5054C11.098 11.1886 11.5425 11.6417 11.6166 12.168L12.6537 17.8197L15.318 11.1886H17.9094L13.9118 20.9838ZM19.3908 20.9838H16.8734L18.9463 11.1886H21.4637L19.3908 20.9838ZM24.7206 13.9019C24.7946 13.3743 25.2391 13.0727 25.7577 13.0727C26.5725 12.9969 27.4602 13.1484 28.201 13.5245L28.6455 11.4155C27.9047 11.1139 27.0898 10.9624 26.3503 10.9624C23.907 10.9624 22.1291 12.3192 22.1291 14.2022C22.1291 15.6347 23.3884 16.3869 24.2774 16.84C25.2391 17.2918 25.6095 17.5935 25.5354 18.0453C25.5354 18.7231 24.7946 19.0247 24.0552 19.0247C23.1662 19.0247 22.2773 18.7988 21.4637 18.4214L21.0192 20.5317C21.9082 20.9077 22.8699 21.0592 23.7588 21.0592C26.4985 21.1337 28.201 19.7782 28.201 17.7437C28.201 15.1816 24.7206 15.0314 24.7206 13.9019ZM37.0117 20.9838L35.0128 11.1886H32.8658C32.4214 11.1886 31.9769 11.4903 31.8287 11.9421L28.1274 20.9838H30.7189L31.2361 19.5526H34.4202L34.7165 20.9838H37.0117ZM33.2357 13.8261L33.9752 17.5178H31.9023L33.2357 13.8261Z" fill="#172B85"/>
</svg>
