<svg width="44" height="32" viewBox="0 0 44 32" fill="none" xmlns="http://www.w3.org/2000/svg">
<rect x="0.645833" y="1.14583" width="42.625" height="29.7083" rx="4.52083" fill="white" stroke="#D9D9D9" stroke-width="1.29167"/>
<path d="M13.612 6.95947H20.5461C21.514 6.95947 22.1161 7.77009 21.8903 8.76792L18.6619 23.009C18.4341 24.0034 17.465 24.8147 16.4964 24.8147H9.56292C8.59633 24.8147 7.99295 24.0034 8.21875 23.009L11.4484 8.76792C11.6742 7.77009 12.6429 6.95947 13.612 6.95947Z" fill="#E21836"/>
<path d="M19.969 6.9585H27.943C28.9108 6.9585 28.4744 7.76912 28.2467 8.76694L25.0189 23.008C24.7924 24.0024 24.8631 24.8137 23.8933 24.8137H15.9192C14.9494 24.8137 14.3493 24.0024 14.5771 23.008L17.8047 8.76694C18.0339 7.76912 19.0005 6.9585 19.969 6.9585Z" fill="#00447C"/>
<path d="M27.6264 6.9585H34.5605C35.5298 6.9585 36.1318 7.76912 35.9041 8.76694L32.6763 23.008C32.4485 24.0024 31.4787 24.8137 30.5096 24.8137H23.5786C22.6088 24.8137 22.0073 24.0024 22.2345 23.008L25.4628 8.76694C25.6886 7.76912 26.6566 6.9585 27.6264 6.9585Z" fill="#007B84"/>
<path d="M15.4227 11.5217C14.7096 11.5292 14.499 11.5217 14.4317 11.5054C14.4059 11.6317 13.9247 13.9123 13.9233 13.9142C13.8197 14.3756 13.7444 14.7045 13.4883 14.9169C13.343 15.0403 13.1733 15.0999 12.9765 15.0999C12.6603 15.0999 12.4761 14.9386 12.4452 14.6326L12.4392 14.5275C12.4392 14.5275 12.5356 13.9095 12.5356 13.906C12.5356 13.906 13.0406 11.8277 13.131 11.553C13.1357 11.5374 13.1371 11.5292 13.1383 11.5217C12.1553 11.5306 11.981 11.5217 11.969 11.5054C11.9625 11.5278 11.9381 11.6567 11.9381 11.6567L11.4225 13.9991L11.3782 14.1978L11.2925 14.8476C11.2925 15.0403 11.3293 15.1977 11.4027 15.3307C11.6376 15.7525 12.3077 15.8157 12.6868 15.8157C13.1753 15.8157 13.6335 15.7091 13.9431 15.5144C14.4806 15.1881 14.6212 14.6781 14.7466 14.2248L14.8048 13.9923C14.8048 13.9923 15.325 11.8338 15.4134 11.553C15.4167 11.5374 15.4181 11.5292 15.4227 11.5217ZM17.1927 13.263C17.0673 13.263 16.8381 13.2943 16.6322 13.398C16.5575 13.4374 16.4869 13.4829 16.4124 13.5282L16.4796 13.2787L16.4428 13.2366C16.0062 13.3275 15.9085 13.3396 15.5053 13.398L15.4715 13.4211C15.4246 13.8199 15.3831 14.1198 15.2095 14.9039C15.1434 15.1929 15.0748 15.4846 15.006 15.7729L15.0246 15.8095C15.4378 15.7871 15.5632 15.7871 15.9224 15.7932L15.9515 15.7607C15.9971 15.5206 16.003 15.4643 16.1041 14.9779C16.1516 14.7473 16.2506 14.2405 16.2995 14.0601C16.3892 14.0174 16.4778 13.9754 16.5623 13.9754C16.7636 13.9754 16.7391 14.1558 16.7313 14.2277C16.7227 14.3484 16.6493 14.7426 16.5741 15.081L16.5239 15.2995C16.4889 15.4608 16.4506 15.6176 16.4156 15.7776L16.4308 15.8095C16.8381 15.7871 16.9623 15.7871 17.3102 15.7932L17.3511 15.7607C17.4139 15.3856 17.4324 15.2852 17.5439 14.7391L17.6 14.4882C17.709 13.9971 17.7638 13.7481 17.6813 13.5452C17.5941 13.3179 17.3849 13.263 17.1927 13.263ZM19.17 13.7772C18.9535 13.8199 18.8154 13.8484 18.6782 13.8668C18.5421 13.8892 18.4095 13.9095 18.2002 13.9394L18.1837 13.9549L18.1684 13.9672C18.1466 14.1273 18.1314 14.2657 18.1025 14.4284C18.078 14.5967 18.0403 14.7879 17.979 15.0626C17.9315 15.2729 17.907 15.3462 17.8799 15.4202C17.8536 15.4941 17.8245 15.566 17.7711 15.7729L17.7836 15.792L17.7941 15.8095C17.9896 15.7999 18.1176 15.7932 18.2491 15.792C18.3804 15.7871 18.5164 15.792 18.727 15.7932L18.7455 15.7777L18.7652 15.7607C18.7956 15.5742 18.8002 15.524 18.8188 15.433C18.8372 15.3354 18.869 15.2003 18.9469 14.8395C18.9838 14.67 19.0248 14.501 19.063 14.328C19.1027 14.1558 19.1443 13.9861 19.1839 13.8166L19.178 13.7961L19.17 13.7772ZM19.1746 13.0839C18.9779 12.9646 18.6326 13.0025 18.4002 13.1673C18.1685 13.3288 18.1421 13.558 18.3382 13.6789C18.5315 13.7949 18.8782 13.7603 19.1085 13.5941C19.3398 13.4292 19.3687 13.202 19.1746 13.0839ZM20.3644 15.8469C20.7624 15.8469 21.1704 15.7342 21.4775 15.3997C21.7138 15.1285 21.8221 14.7249 21.8597 14.5587C21.9819 14.0079 21.8867 13.7507 21.7672 13.5941C21.5857 13.3553 21.2649 13.2787 20.9321 13.2787C20.732 13.2787 20.2554 13.299 19.883 13.6517C19.6157 13.9061 19.4921 14.2513 19.4176 14.5823C19.3424 14.9196 19.2558 15.5267 19.7992 15.7526C19.9669 15.8266 20.2086 15.8469 20.3644 15.8469ZM20.3333 14.6075C20.4251 14.1904 20.5334 13.8403 20.8099 13.8403C21.0266 13.8403 21.0423 14.1008 20.946 14.5193C20.9287 14.6122 20.8496 14.9576 20.7427 15.1047C20.6679 15.2132 20.5796 15.279 20.4819 15.279C20.4528 15.279 20.2799 15.279 20.2772 15.0152C20.2758 14.885 20.3017 14.752 20.3333 14.6075ZM22.8546 15.7932L22.8857 15.7608C22.9299 15.5206 22.9371 15.4642 23.0348 14.9779C23.0837 14.7473 23.1847 14.2406 23.2322 14.0602C23.3221 14.0173 23.4092 13.9752 23.4964 13.9752C23.6963 13.9752 23.672 14.1557 23.6641 14.2276C23.6568 14.3484 23.5834 14.7425 23.5069 15.0809L23.4594 15.2994C23.423 15.4609 23.3835 15.6175 23.3485 15.7776L23.3637 15.8096C23.7724 15.7872 23.8919 15.7872 24.2417 15.7932L24.284 15.7608C24.3453 15.3855 24.3619 15.2851 24.4768 14.7392L24.5316 14.488C24.6411 13.997 24.6966 13.7481 24.6154 13.5453C24.5257 13.318 24.3151 13.2631 24.1256 13.2631C24 13.2631 23.7697 13.2942 23.565 13.398C23.4918 13.4374 23.4185 13.4828 23.3465 13.5283L23.4092 13.2787L23.3755 13.2365C22.9392 13.3275 22.8394 13.3397 22.4367 13.398L22.4057 13.4211C22.3569 13.82 22.3172 14.1197 22.1436 14.904C22.0775 15.1929 22.0089 15.4847 21.9403 15.7729L21.9587 15.8096C22.3726 15.7872 22.4962 15.7872 22.8546 15.7932ZM25.8573 15.8095C25.8829 15.6806 26.0356 14.9169 26.0369 14.9169C26.0369 14.9169 26.1669 14.3565 26.1748 14.3362C26.1748 14.3362 26.2157 14.2778 26.2566 14.2547H26.3168C26.8845 14.2547 27.5256 14.2547 28.0281 13.875C28.37 13.6145 28.6037 13.2298 28.708 12.7624C28.735 12.6477 28.755 12.5114 28.755 12.3751C28.755 12.1961 28.72 12.0189 28.6189 11.8805C28.3627 11.5122 27.8525 11.5054 27.2634 11.5027C27.2616 11.5027 26.9731 11.5054 26.9731 11.5054C26.2191 11.515 25.9167 11.5122 25.7925 11.4966C25.782 11.553 25.7623 11.6534 25.7623 11.6534C25.7623 11.6534 25.4922 12.9395 25.4922 12.9416C25.4922 12.9416 24.8459 15.6759 24.8155 15.8048C25.4738 15.7966 25.7437 15.7966 25.8573 15.8095ZM26.3577 13.5249C26.3577 13.5249 26.6449 12.2414 26.6435 12.2463L26.6528 12.1804L26.6569 12.1302L26.7716 12.1424C26.7716 12.1424 27.3638 12.1947 27.3777 12.1961C27.6114 12.289 27.7078 12.5284 27.6405 12.841C27.5792 13.1267 27.3988 13.3668 27.1671 13.4828C26.9763 13.5811 26.7425 13.5893 26.5017 13.5893H26.3459L26.3577 13.5249ZM28.1456 14.6313C28.0697 14.9637 27.9825 15.5708 28.5232 15.7871C28.6956 15.8625 28.85 15.8849 29.0071 15.8767C29.1729 15.8675 29.3265 15.7821 29.4688 15.6591C29.456 15.7097 29.4431 15.7602 29.4303 15.8109L29.4548 15.8434C29.8437 15.8265 29.9643 15.8265 30.3857 15.8298L30.4239 15.8C30.4854 15.4284 30.5434 15.0675 30.7033 14.3566C30.7812 14.016 30.8589 13.6788 30.9389 13.3396L30.9264 13.3023C30.4913 13.3851 30.3751 13.4028 29.9566 13.4638L29.9248 13.4904C29.9206 13.5249 29.9162 13.5581 29.9121 13.5913C29.8471 13.4832 29.7527 13.391 29.6072 13.3336C29.4211 13.2584 28.9841 13.3553 28.6084 13.7067C28.3444 13.9577 28.2176 14.3015 28.1456 14.6313ZM29.0593 14.6516C29.1524 14.2419 29.2594 13.8953 29.5366 13.8953C29.7118 13.8953 29.8041 14.0615 29.7854 14.3449C29.7705 14.4156 29.7544 14.4901 29.7353 14.5743C29.7076 14.6961 29.6775 14.8167 29.6483 14.9376C29.6185 15.0203 29.5839 15.0982 29.5459 15.1502C29.4746 15.254 29.3049 15.3184 29.2072 15.3184C29.1795 15.3184 29.0084 15.3184 29.0025 15.0593C29.0011 14.9303 29.027 14.7975 29.0593 14.6516ZM33.8306 13.299L33.797 13.2596C33.3665 13.3492 33.2886 13.3634 32.8931 13.4183L32.864 13.4482C32.8627 13.453 32.8615 13.4605 32.8595 13.4673L32.8581 13.4605C32.5637 14.1584 32.5723 14.0078 32.3327 14.5573C32.3313 14.5323 32.3313 14.5167 32.3299 14.4901L32.2699 13.299L32.2323 13.2596C31.7813 13.3492 31.7707 13.3634 31.3542 13.4183L31.3218 13.4482C31.3172 13.4624 31.3172 13.478 31.3145 13.495L31.3172 13.5011C31.3693 13.7744 31.3568 13.7135 31.409 14.1449C31.4333 14.3565 31.4658 14.5694 31.4901 14.7785C31.5312 15.1284 31.5542 15.3007 31.6044 15.8347C31.3231 16.3115 31.2565 16.492 30.9858 16.9105L30.9876 16.9147L30.797 17.2245C30.7752 17.2571 30.7554 17.2795 30.7277 17.2891C30.6973 17.3045 30.6577 17.3073 30.6028 17.3073H30.4972L30.3402 17.8439L30.8788 17.8534C31.195 17.852 31.3938 17.7001 31.5008 17.4959L31.8395 16.8995H31.8341L31.8697 16.8575C32.0976 16.3536 33.8306 13.299 33.8306 13.299ZM28.1456 20.3463H27.9171L28.7628 17.4722H29.0434L29.1325 17.1761L29.1411 17.5053C29.1306 17.7089 29.2864 17.8893 29.6958 17.8594H30.1692L30.3321 17.306H30.154C30.0515 17.306 30.0041 17.2794 30.01 17.2225L30.0013 16.8875H29.1247V16.8892C28.8412 16.8953 27.9948 16.9172 27.8234 16.9641C27.6161 17.0189 27.3975 17.1804 27.3975 17.1804L27.4834 16.884H26.6633L26.4925 17.4722L25.6354 20.3903H25.4691L25.306 20.9397H26.9393L26.8846 21.1229H27.6894L27.7428 20.9397H27.9686L28.1456 20.3463ZM27.4754 18.0562C27.3441 18.0935 27.0997 18.2067 27.0997 18.2067L27.3171 17.4722H27.9686L27.8114 18.0074C27.8114 18.0074 27.6101 18.0195 27.4754 18.0562ZM27.4879 19.1056C27.4879 19.1056 27.2833 19.132 27.1486 19.1632C27.0159 19.2046 26.7671 19.3348 26.7671 19.3348L26.9916 18.5704H27.6465L27.4879 19.1056ZM27.1229 20.3531H26.4693L26.6588 19.708H27.3103L27.1229 20.3531ZM28.6968 18.5704H29.6389L29.5035 19.0208H28.5489L28.4056 19.5133H29.2409L28.6084 20.4283C28.5642 20.4955 28.5244 20.5193 28.4803 20.5382C28.436 20.5613 28.3779 20.5884 28.3106 20.5884H28.0789L27.9197 21.1278H28.5258C28.8408 21.1278 29.0269 20.9805 29.1643 20.7872L29.598 20.1774L29.6911 20.7966C29.7109 20.9126 29.792 20.9805 29.847 21.0069C29.9076 21.0382 29.9704 21.0918 30.0589 21.0998C30.1539 21.104 30.2225 21.1073 30.2682 21.1073H30.566L30.7448 20.5037H30.6273C30.5599 20.5037 30.4438 20.492 30.424 20.4703C30.4042 20.4439 30.4042 20.4033 30.3936 20.3415L30.2991 19.7208H29.9122L30.0819 19.5133H31.0346L31.1812 19.0208H30.2991L30.4365 18.5704H31.3159L31.479 18.0148H28.8572L28.6968 18.5704ZM20.74 20.4785L20.9599 19.727H21.8636L22.0287 19.168H21.1241L21.2622 18.7053H22.1462L22.3099 18.1641H20.0982L19.9378 18.7053H20.4403L20.3063 19.168H19.8025L19.6355 19.7365H20.1378L19.8447 20.7309C19.8052 20.8625 19.8633 20.9127 19.9002 20.9738C19.9378 21.0334 19.976 21.0728 20.0619 21.0952C20.1505 21.1155 20.2111 21.1277 20.2936 21.1277H21.3124L21.494 20.5084L21.0423 20.5721C20.9551 20.5721 20.7136 20.5614 20.74 20.4785ZM20.8436 16.8806L20.6146 17.3059C20.5656 17.3988 20.5215 17.4565 20.4818 17.483C20.4468 17.5054 20.3775 17.5148 20.2771 17.5148H20.1576L19.9979 18.0589H20.3947C20.5856 18.0589 20.7321 17.987 20.8021 17.951C20.8773 17.9097 20.897 17.9333 20.9552 17.8757L21.0892 17.7564H22.3284L22.4929 17.1899H21.5858L21.7441 16.8806H20.8436ZM22.6731 20.4895C22.652 20.4582 22.6672 20.4032 22.6995 20.2885L23.0382 19.1367H24.2431C24.4187 19.1341 24.5454 19.132 24.6279 19.1259C24.7165 19.1164 24.8128 19.0839 24.9178 19.0256C25.0261 18.9644 25.0816 18.9 25.1284 18.826C25.1806 18.7522 25.2644 18.5907 25.3364 18.3417L25.7622 16.884L24.5118 16.8915C24.5118 16.8915 24.1268 16.9499 23.9573 17.0143C23.7862 17.0862 23.5418 17.2869 23.5418 17.2869L23.6547 16.8873H22.8823L21.801 20.5721C21.7626 20.7152 21.7369 20.8191 21.731 20.8814C21.729 20.9486 21.8135 21.0151 21.8683 21.0653C21.933 21.1155 22.0287 21.1073 22.1204 21.1155C22.2169 21.123 22.3542 21.1276 22.5436 21.1276H23.1372L23.3194 20.4955L22.788 20.5471C22.7312 20.5471 22.6902 20.5159 22.6731 20.4895ZM23.2567 18.3587H24.5223L24.4418 18.6178C24.4305 18.6239 24.4035 18.605 24.2747 18.6206H23.1788L23.2567 18.3587ZM23.5102 17.4897H24.7865L24.6947 17.8018C24.6947 17.8018 24.0932 17.7957 23.9968 17.814C23.5729 17.8893 23.3253 18.122 23.3253 18.122L23.5102 17.4897ZM24.4702 19.4854C24.4597 19.5242 24.4431 19.5478 24.42 19.5655C24.3943 19.5825 24.3527 19.5886 24.2907 19.5886H24.1103L24.121 19.2731H23.3709L23.3405 20.8156C23.3393 20.927 23.3498 20.9914 23.429 21.043C23.5083 21.1074 23.7525 21.1155 24.0813 21.1155H24.5513L24.721 20.5381L24.3118 20.5612L24.1757 20.5694C24.1571 20.5612 24.1394 20.5538 24.1196 20.5335C24.1024 20.5159 24.0733 20.5267 24.078 20.4154L24.0813 20.02L24.5104 20.0017C24.7421 20.0017 24.8411 19.9243 24.9257 19.8505C25.0063 19.7798 25.0326 19.6985 25.0631 19.5886L25.1351 19.2385H24.5454L24.4702 19.4854Z" fill="#FEFEFE"/>
</svg>
