<svg width="44" height="32" viewBox="0 0 44 32" fill="none" xmlns="http://www.w3.org/2000/svg">
<rect x="0.647059" y="1.14706" width="42.7059" height="29.7647" rx="4.52941" fill="white" stroke="#D9D9D9" stroke-width="1.29412"/>
<path d="M28.4476 15.9413C29.1351 15.9562 29.8265 15.911 30.5113 15.9648C31.2048 16.0939 31.3719 17.1418 30.7558 17.4849C30.3354 17.711 29.8361 17.5691 29.3803 17.609H28.4476V15.9413ZM30.9088 14.0537C31.0616 14.5918 30.5418 15.075 30.0226 15.0009H28.4476C28.4587 14.4934 28.426 13.9426 28.4636 13.4618C29.0945 13.4795 29.7313 13.4256 30.3586 13.49C30.6281 13.5576 30.8537 13.7787 30.9088 14.0537ZM34.6992 6.07328C34.7285 7.10098 34.7034 8.183 34.7118 9.23155C34.7099 13.4946 34.716 17.7575 34.7085 22.0207C34.6808 23.6184 33.2622 25.0066 31.6726 25.0385C30.0815 25.045 28.4901 25.0395 26.8987 25.0413V18.5965C28.6326 18.5876 30.3673 18.6146 32.1005 18.583C32.9045 18.5326 33.7852 18.0031 33.8226 17.12C33.9173 16.233 33.0795 15.6196 32.2841 15.5227C31.9783 15.5147 31.9873 15.4337 32.2841 15.3983C33.0427 15.2347 33.6385 14.451 33.4153 13.6661C33.2251 12.8406 32.3109 12.5211 31.5505 12.5226C30.0002 12.5121 28.4495 12.5212 26.899 12.5181C26.909 11.315 26.8781 10.1105 26.9157 8.90822C27.0385 7.33939 28.4928 6.04562 30.0601 6.07369C31.6067 6.07346 33.153 6.07346 34.6992 6.0734V6.07328Z" fill="url(#paint0_linear_1_4341)"/>
<path d="M9.37815 9.07051C9.41775 7.47538 10.8424 6.09851 12.43 6.0752C14.0153 6.07032 15.6008 6.07449 17.1861 6.07308C17.1817 11.4101 17.1946 16.7477 17.1795 22.0843C17.1185 23.6601 15.7093 25.0107 14.139 25.0386C12.5508 25.0444 10.9623 25.0394 9.37398 25.041V18.379C10.9168 18.7427 12.5346 18.8976 14.1086 18.6563C15.0494 18.5052 16.0787 18.0441 16.3973 17.0699C16.6317 16.2365 16.4997 15.3595 16.5346 14.5042V12.5179H13.8108C13.7985 13.8316 13.8358 15.1476 13.791 16.4597C13.7176 17.2662 12.9174 17.7786 12.1553 17.7512C11.2102 17.7612 9.33738 17.0676 9.33738 17.0676C9.33267 14.6063 9.3648 11.5239 9.37815 9.07075V9.07051Z" fill="url(#paint1_linear_1_4341)"/>
<path d="M18.2014 13.3194C18.0581 13.3498 18.1726 12.8319 18.136 12.6355C18.1457 11.3935 18.1155 10.1502 18.1526 8.90911C18.2751 7.33365 19.7406 6.03664 21.3142 6.07352H25.9484C25.944 11.4105 25.9569 16.7481 25.9419 22.0848C25.8807 23.6605 24.4715 25.0111 22.9012 25.0391C21.3128 25.045 19.7243 25.04 18.1359 25.0415V17.7423C19.2207 18.6307 20.6952 18.769 22.0467 18.7714C23.0656 18.7711 24.0785 18.6143 25.0679 18.3797V17.0425C23.9529 17.5972 22.6421 17.9495 21.406 17.6309C20.5437 17.4166 19.9178 16.5849 19.9317 15.6967C19.8318 14.7731 20.3743 13.7979 21.2837 13.5233C22.4127 13.1705 23.6433 13.4404 24.7017 13.8991C24.9284 14.0176 25.1586 14.1645 25.0679 13.7862V12.7352C23.2978 12.3148 21.4141 12.1602 19.6358 12.6174C19.1211 12.7624 18.6196 12.9822 18.2014 13.3195V13.3194Z" fill="url(#paint2_linear_1_4341)"/>
<defs>
<linearGradient id="paint0_linear_1_4341" x1="26.8453" y1="15.1517" x2="34.6626" y2="15.1517" gradientUnits="userSpaceOnUse">
<stop stop-color="#58B03A"/>
<stop offset="1" stop-color="#55B330"/>
</linearGradient>
<linearGradient id="paint1_linear_1_4341" x1="9.20776" y1="15.7387" x2="17.058" y2="15.7387" gradientUnits="userSpaceOnUse">
<stop stop-color="#0F6EB6"/>
<stop offset="1" stop-color="#006DBA"/>
</linearGradient>
<linearGradient id="paint2_linear_1_4341" x1="18.1244" y1="15.3357" x2="25.9469" y2="15.3357" gradientUnits="userSpaceOnUse">
<stop stop-color="#DE0D3D"/>
<stop offset="1" stop-color="#E30138"/>
</linearGradient>
</defs>
</svg>
