<svg width="45" height="32" viewBox="0 0 45 32" fill="none" xmlns="http://www.w3.org/2000/svg">
<rect x="0.651956" y="1.15196" width="43.0291" height="29.99" rx="4.56369" fill="white" stroke="#D9D9D9" stroke-width="1.30391"/>
<path d="M17.9219 30.1967L42.6962 22.6992V26.285C42.6962 28.4454 40.9449 30.1967 38.7845 30.1967H17.9219Z" fill="#FD6020"/>
<path fill-rule="evenodd" clip-rule="evenodd" d="M38.0386 12.2683C39.3913 12.2683 40.1353 12.8928 40.1353 14.0726C40.203 14.9747 39.5943 15.7381 38.7826 15.8769L40.6088 18.4446H39.1884L37.6328 15.9463H37.4975V18.4446H36.3477V12.2683H38.0386ZM37.4977 15.1133H37.8359C38.5799 15.1133 38.9181 14.7663 38.9181 14.1417C38.9181 13.5866 38.5799 13.2396 37.8359 13.2396H37.4977V15.1133ZM32.3576 18.4446H35.6042V17.4037H33.5075V15.7381H35.5366V14.6972H33.5075V13.3092H35.6042V12.2683H32.3576V18.4446V18.4446ZM28.9754 16.4321L27.4197 12.2683H26.2023L28.7048 18.5834H29.3136L31.8161 12.2683H30.5987L28.9754 16.4321V16.4321ZM15.2451 15.3914C15.2451 17.1263 16.5978 18.5837 18.2887 18.5837C18.8298 18.5837 19.3033 18.4449 19.7767 18.2367V16.8487C19.4386 17.2651 18.9651 17.5427 18.424 17.5427C17.3418 17.5427 16.4625 16.7099 16.4625 15.5996V15.4608C16.3949 14.3504 17.2742 13.3789 18.3564 13.3095C18.8975 13.3095 19.4386 13.587 19.7767 14.0034V12.6155C19.3709 12.3379 18.8298 12.2685 18.3564 12.2685C16.5978 12.1297 15.2451 13.587 15.2451 15.3914V15.3914ZM13.1485 14.6277C12.4721 14.3501 12.2692 14.2113 12.2692 13.8643C12.3368 13.4479 12.675 13.1009 13.0808 13.1703C13.419 13.1703 13.7572 13.3785 14.0278 13.6561L14.6365 12.8234C14.163 12.407 13.5543 12.1294 12.9456 12.1294C11.9987 12.06 11.187 12.8234 11.1194 13.7949V13.8643C11.1194 14.6971 11.4576 15.1829 12.5397 15.5299C12.8103 15.5992 13.0808 15.738 13.3514 15.8768C13.5543 16.0156 13.6896 16.2238 13.6896 16.5014C13.6896 16.9872 13.2838 17.4036 12.8779 17.4036H12.8103C12.2692 17.4036 11.7957 17.0566 11.5928 16.5708L10.8488 17.3342C11.2547 18.0976 12.0663 18.5139 12.8779 18.5139C13.9601 18.5833 14.8394 17.7506 14.907 16.6402V16.432C14.8394 15.5992 14.5012 15.1829 13.1485 14.6277V14.6277ZM9.22594 18.4446H10.3758V12.2683H9.22594V18.4446V18.4446ZM3.88232 12.2683H5.57324H5.91143C7.53471 12.3376 8.8198 13.7256 8.75217 15.3911C8.75217 16.2933 8.34635 17.1261 7.66998 17.7506C7.06125 18.2364 6.31725 18.514 5.57324 18.4446H3.88232V12.2683ZM5.37047 17.4033C5.91156 17.4727 6.52029 17.2646 6.92611 16.9176C7.33193 16.5012 7.53484 15.946 7.53484 15.3214C7.53484 14.7662 7.33193 14.2111 6.92611 13.7947C6.52029 13.4477 5.91156 13.2395 5.37047 13.3089H5.03229V17.4033H5.37047Z" fill="black"/>
<path fill-rule="evenodd" clip-rule="evenodd" d="M23.2265 12.125C21.5356 12.125 20.1152 13.5129 20.1152 15.3173C20.1152 17.0522 21.468 18.5096 23.2265 18.579C24.9851 18.6483 26.3378 17.191 26.4054 15.3867C26.3378 13.5823 24.9851 12.125 23.2265 12.125V12.125Z" fill="#FD6020"/>
</svg>
