<svg width="45" height="32" viewBox="0 0 45 32" fill="none" xmlns="http://www.w3.org/2000/svg">
<rect x="0.654412" y="1.15441" width="43.1912" height="30.1029" rx="4.58088" fill="white" stroke="#D9D9D9" stroke-width="1.30882"/>
<path fill-rule="evenodd" clip-rule="evenodd" d="M22.2315 22.2376C20.6992 23.5267 18.7116 24.3049 16.5397 24.3049C11.6934 24.3049 7.76465 20.4303 7.76465 15.6507C7.76465 10.8712 11.6934 6.99658 16.5397 6.99658C18.7117 6.99658 20.6994 7.77488 22.2318 9.06412C23.7641 7.77502 25.7517 6.99683 27.9236 6.99683C32.7699 6.99683 36.6986 10.8714 36.6986 15.651C36.6986 20.4306 32.7699 24.3052 27.9236 24.3052C25.7515 24.3052 23.7638 23.5269 22.2315 22.2376Z" fill="#ED0006"/>
<path fill-rule="evenodd" clip-rule="evenodd" d="M22.2314 22.2375C24.1182 20.6502 25.3145 18.2883 25.3145 15.6507C25.3145 13.0132 24.1182 10.6513 22.2314 9.06396C23.7637 7.77481 25.7514 6.99658 27.9234 6.99658C32.7697 6.99658 36.6984 10.8712 36.6984 15.6507C36.6984 20.4303 32.7697 24.3049 27.9234 24.3049C25.7514 24.3049 23.7637 23.5267 22.2314 22.2375Z" fill="#F9A000"/>
<path fill-rule="evenodd" clip-rule="evenodd" d="M22.232 22.2375C24.1188 20.6502 25.3151 18.2883 25.3151 15.6508C25.3151 13.0132 24.1188 10.6513 22.232 9.06396C20.3453 10.6513 19.1489 13.0132 19.1489 15.6508C19.1489 18.2883 20.3453 20.6502 22.232 22.2375Z" fill="#FF5E00"/>
</svg>
